# https://github.com/mikedh/trimesh
v 0.00000000 0.00000000 0.00000000
v 0.00000000 0.00000000 2.50000000
v 0.00000000 207.00000000 0.00000000
v 0.00000000 207.00000000 2.50000000
v 147.00000000 0.00000000 0.00000000
v 147.00000000 0.00000000 2.50000000
v 147.00000000 207.00000000 0.00000000
v 147.00000000 207.00000000 2.50000000
vn -0.33333333 -0.66666667 0.66666667
vn -0.66666667 -0.33333333 -0.66666667
vn -0.81649658 0.40824829 0.40824829
vn -0.40824829 0.81649658 -0.40824829
vn 0.81649658 -0.40824829 0.40824829
vn 0.40824829 -0.81649658 -0.40824829
vn 0.33333333 0.66666667 0.66666667
vn 0.66666667 0.33333333 -0.66666667
f 1//1 5//5 7//7
f 1//1 7//7 3//3
f 2//2 4//4 8//8
f 2//2 8//8 6//6
f 1//1 5//5 6//6
f 1//1 6//6 2//2
f 5//5 7//7 8//8
f 5//5 8//8 6//6
f 7//7 3//3 4//4
f 7//7 4//4 8//8
f 3//3 1//1 2//2
f 3//3 2//2 4//4

